<svg id="visual" viewBox="0 0 960 300" width="960" height="300" xmlns="http://www.w3.org/2000/svg" xmlns:xlink="http://www.w3.org/1999/xlink" version="1.1"><path d="M0 92L17.8 95.8C35.7 99.7 71.3 107.3 106.8 106.5C142.3 105.7 177.7 96.3 213.2 96.5C248.7 96.7 284.3 106.3 320 111.7C355.7 117 391.3 118 426.8 109.2C462.3 100.3 497.7 81.7 533.2 77C568.7 72.3 604.3 81.7 640 89.5C675.7 97.3 711.3 103.7 746.8 98.8C782.3 94 817.7 78 853.2 68.8C888.7 59.7 924.3 57.3 942.2 56.2L960 55L960 301L942.2 301C924.3 301 888.7 301 853.2 301C817.7 301 782.3 301 746.8 301C711.3 301 675.7 301 640 301C604.3 301 568.7 301 533.2 301C497.7 301 462.3 301 426.8 301C391.3 301 355.7 301 320 301C284.3 301 248.7 301 213.2 301C177.7 301 142.3 301 106.8 301C71.3 301 35.7 301 17.8 301L0 301Z" fill="#ff00d0"></path><path d="M0 153L17.8 146.2C35.7 139.3 71.3 125.7 106.8 119.2C142.3 112.7 177.7 113.3 213.2 114.5C248.7 115.7 284.3 117.3 320 124.5C355.7 131.7 391.3 144.3 426.8 148.2C462.3 152 497.7 147 533.2 140C568.7 133 604.3 124 640 124.7C675.7 125.3 711.3 135.7 746.8 134.7C782.3 133.7 817.7 121.3 853.2 115.7C888.7 110 924.3 111 942.2 111.5L960 112L960 301L942.2 301C924.3 301 888.7 301 853.2 301C817.7 301 782.3 301 746.8 301C711.3 301 675.7 301 640 301C604.3 301 568.7 301 533.2 301C497.7 301 462.3 301 426.8 301C391.3 301 355.7 301 320 301C284.3 301 248.7 301 213.2 301C177.7 301 142.3 301 106.8 301C71.3 301 35.7 301 17.8 301L0 301Z" fill="#d059f0"></path><path d="M0 187L17.8 183.2C35.7 179.3 71.3 171.7 106.8 172C142.3 172.3 177.7 180.7 213.2 185.7C248.7 190.7 284.3 192.3 320 192.8C355.7 193.3 391.3 192.7 426.8 184.8C462.3 177 497.7 162 533.2 158.5C568.7 155 604.3 163 640 170C675.7 177 711.3 183 746.8 182.2C782.3 181.3 817.7 173.7 853.2 172.3C888.7 171 924.3 176 942.2 178.5L960 181L960 301L942.2 301C924.3 301 888.7 301 853.2 301C817.7 301 782.3 301 746.8 301C711.3 301 675.7 301 640 301C604.3 301 568.7 301 533.2 301C497.7 301 462.3 301 426.8 301C391.3 301 355.7 301 320 301C284.3 301 248.7 301 213.2 301C177.7 301 142.3 301 106.8 301C71.3 301 35.7 301 17.8 301L0 301Z" fill="#9b7aff"></path><path d="M0 204L17.8 207C35.7 210 71.3 216 106.8 214.2C142.3 212.3 177.7 202.7 213.2 204.2C248.7 205.7 284.3 218.3 320 224.5C355.7 230.7 391.3 230.3 426.8 229.3C462.3 228.3 497.7 226.7 533.2 222.3C568.7 218 604.3 211 640 211.2C675.7 211.3 711.3 218.7 746.8 219.8C782.3 221 817.7 216 853.2 212C888.7 208 924.3 205 942.2 203.5L960 202L960 301L942.2 301C924.3 301 888.7 301 853.2 301C817.7 301 782.3 301 746.8 301C711.3 301 675.7 301 640 301C604.3 301 568.7 301 533.2 301C497.7 301 462.3 301 426.8 301C391.3 301 355.7 301 320 301C284.3 301 248.7 301 213.2 301C177.7 301 142.3 301 106.8 301C71.3 301 35.7 301 17.8 301L0 301Z" fill="#618fff"></path><path d="M0 250L17.8 250.2C35.7 250.3 71.3 250.7 106.8 252.7C142.3 254.7 177.7 258.3 213.2 261.2C248.7 264 284.3 266 320 264.5C355.7 263 391.3 258 426.8 253.8C462.3 249.7 497.7 246.3 533.2 245.2C568.7 244 604.3 245 640 248C675.7 251 711.3 256 746.8 257.8C782.3 259.7 817.7 258.3 853.2 254.7C888.7 251 924.3 245 942.2 242L960 239L960 301L942.2 301C924.3 301 888.7 301 853.2 301C817.7 301 782.3 301 746.8 301C711.3 301 675.7 301 640 301C604.3 301 568.7 301 533.2 301C497.7 301 462.3 301 426.8 301C391.3 301 355.7 301 320 301C284.3 301 248.7 301 213.2 301C177.7 301 142.3 301 106.8 301C71.3 301 35.7 301 17.8 301L0 301Z" fill="#009dff"></path></svg>