<svg id="visual" viewBox="0 0 960 300" width="960" height="300" xmlns="http://www.w3.org/2000/svg" xmlns:xlink="http://www.w3.org/1999/xlink" version="1.1"><path d="M0 112L17.8 104.7C35.7 97.3 71.3 82.7 106.8 80.7C142.3 78.7 177.7 89.3 213.2 94.3C248.7 99.3 284.3 98.7 320 98.8C355.7 99 391.3 100 426.8 98.2C462.3 96.3 497.7 91.7 533.2 88.8C568.7 86 604.3 85 640 90.2C675.7 95.3 711.3 106.7 746.8 111C782.3 115.3 817.7 112.7 853.2 107.8C888.7 103 924.3 96 942.2 92.5L960 89L960 301L942.2 301C924.3 301 888.7 301 853.2 301C817.7 301 782.3 301 746.8 301C711.3 301 675.7 301 640 301C604.3 301 568.7 301 533.2 301C497.7 301 462.3 301 426.8 301C391.3 301 355.7 301 320 301C284.3 301 248.7 301 213.2 301C177.7 301 142.3 301 106.8 301C71.3 301 35.7 301 17.8 301L0 301Z" fill="#ff00d0"></path><path d="M0 150L17.8 148.3C35.7 146.7 71.3 143.3 106.8 144.2C142.3 145 177.7 150 213.2 146.2C248.7 142.3 284.3 129.7 320 127.8C355.7 126 391.3 135 426.8 131.7C462.3 128.3 497.7 112.7 533.2 111.2C568.7 109.7 604.3 122.3 640 130.7C675.7 139 711.3 143 746.8 139.3C782.3 135.7 817.7 124.3 853.2 125.5C888.7 126.7 924.3 140.3 942.2 147.2L960 154L960 301L942.2 301C924.3 301 888.7 301 853.2 301C817.7 301 782.3 301 746.8 301C711.3 301 675.7 301 640 301C604.3 301 568.7 301 533.2 301C497.7 301 462.3 301 426.8 301C391.3 301 355.7 301 320 301C284.3 301 248.7 301 213.2 301C177.7 301 142.3 301 106.8 301C71.3 301 35.7 301 17.8 301L0 301Z" fill="#ff009a"></path><path d="M0 157L17.8 160.2C35.7 163.3 71.3 169.7 106.8 172.5C142.3 175.3 177.7 174.7 213.2 174.8C248.7 175 284.3 176 320 172.3C355.7 168.7 391.3 160.3 426.8 163C462.3 165.7 497.7 179.3 533.2 180.2C568.7 181 604.3 169 640 161.5C675.7 154 711.3 151 746.8 149.3C782.3 147.7 817.7 147.3 853.2 146.8C888.7 146.3 924.3 145.7 942.2 145.3L960 145L960 301L942.2 301C924.3 301 888.7 301 853.2 301C817.7 301 782.3 301 746.8 301C711.3 301 675.7 301 640 301C604.3 301 568.7 301 533.2 301C497.7 301 462.3 301 426.8 301C391.3 301 355.7 301 320 301C284.3 301 248.7 301 213.2 301C177.7 301 142.3 301 106.8 301C71.3 301 35.7 301 17.8 301L0 301Z" fill="#ff006c"></path><path d="M0 211L17.8 207.7C35.7 204.3 71.3 197.7 106.8 197.8C142.3 198 177.7 205 213.2 204.5C248.7 204 284.3 196 320 194.3C355.7 192.7 391.3 197.3 426.8 202.2C462.3 207 497.7 212 533.2 210.2C568.7 208.3 604.3 199.7 640 197.3C675.7 195 711.3 199 746.8 200.2C782.3 201.3 817.7 199.7 853.2 197.3C888.7 195 924.3 192 942.2 190.5L960 189L960 301L942.2 301C924.3 301 888.7 301 853.2 301C817.7 301 782.3 301 746.8 301C711.3 301 675.7 301 640 301C604.3 301 568.7 301 533.2 301C497.7 301 462.3 301 426.8 301C391.3 301 355.7 301 320 301C284.3 301 248.7 301 213.2 301C177.7 301 142.3 301 106.8 301C71.3 301 35.7 301 17.8 301L0 301Z" fill="#ff3742"></path><path d="M0 263L17.8 258.5C35.7 254 71.3 245 106.8 240.3C142.3 235.7 177.7 235.3 213.2 237.8C248.7 240.3 284.3 245.7 320 250.2C355.7 254.7 391.3 258.3 426.8 260.7C462.3 263 497.7 264 533.2 263.5C568.7 263 604.3 261 640 259.8C675.7 258.7 711.3 258.3 746.8 258.8C782.3 259.3 817.7 260.7 853.2 260.3C888.7 260 924.3 258 942.2 257L960 256L960 301L942.2 301C924.3 301 888.7 301 853.2 301C817.7 301 782.3 301 746.8 301C711.3 301 675.7 301 640 301C604.3 301 568.7 301 533.2 301C497.7 301 462.3 301 426.8 301C391.3 301 355.7 301 320 301C284.3 301 248.7 301 213.2 301C177.7 301 142.3 301 106.8 301C71.3 301 35.7 301 17.8 301L0 301Z" fill="#ff6200"></path></svg>