<svg id="visual" viewBox="0 0 960 300" width="960" height="300" xmlns="http://www.w3.org/2000/svg"
	xmlns:xlink="http://www.w3.org/1999/xlink" version="1.1">
	<path
		d="M0 95L17.8 89.2C35.7 83.3 71.3 71.7 106.8 65C142.3 58.3 177.7 56.7 213.2 58.3C248.7 60 284.3 65 320 71.7C355.7 78.3 391.3 86.7 426.8 90C462.3 93.3 497.7 91.7 533.2 90.3C568.7 89 604.3 88 640 93.8C675.7 99.7 711.3 112.3 746.8 115.2C782.3 118 817.7 111 853.2 101.2C888.7 91.3 924.3 78.7 942.2 72.3L960 66L960 301L942.2 301C924.3 301 888.7 301 853.2 301C817.7 301 782.3 301 746.8 301C711.3 301 675.7 301 640 301C604.3 301 568.7 301 533.2 301C497.7 301 462.3 301 426.8 301C391.3 301 355.7 301 320 301C284.3 301 248.7 301 213.2 301C177.7 301 142.3 301 106.8 301C71.3 301 35.7 301 17.8 301L0 301Z"
		fill="#ff00d0"></path>
	<path
		d="M0 130L17.8 127.2C35.7 124.3 71.3 118.7 106.8 122C142.3 125.3 177.7 137.7 213.2 138C248.7 138.3 284.3 126.7 320 121.2C355.7 115.7 391.3 116.3 426.8 117C462.3 117.7 497.7 118.3 533.2 118.5C568.7 118.7 604.3 118.3 640 120.2C675.7 122 711.3 126 746.8 132.7C782.3 139.3 817.7 148.7 853.2 149C888.7 149.3 924.3 140.7 942.2 136.3L960 132L960 301L942.2 301C924.3 301 888.7 301 853.2 301C817.7 301 782.3 301 746.8 301C711.3 301 675.7 301 640 301C604.3 301 568.7 301 533.2 301C497.7 301 462.3 301 426.8 301C391.3 301 355.7 301 320 301C284.3 301 248.7 301 213.2 301C177.7 301 142.3 301 106.8 301C71.3 301 35.7 301 17.8 301L0 301Z"
		fill="#d059f0"></path>
	<path
		d="M0 174L17.8 169.3C35.7 164.7 71.3 155.3 106.8 155.8C142.3 156.3 177.7 166.7 213.2 171C248.7 175.3 284.3 173.7 320 170.3C355.7 167 391.3 162 426.8 165C462.3 168 497.7 179 533.2 181.5C568.7 184 604.3 178 640 171.3C675.7 164.7 711.3 157.3 746.8 153.5C782.3 149.7 817.7 149.3 853.2 156.3C888.7 163.3 924.3 177.7 942.2 184.8L960 192L960 301L942.2 301C924.3 301 888.7 301 853.2 301C817.7 301 782.3 301 746.8 301C711.3 301 675.7 301 640 301C604.3 301 568.7 301 533.2 301C497.7 301 462.3 301 426.8 301C391.3 301 355.7 301 320 301C284.3 301 248.7 301 213.2 301C177.7 301 142.3 301 106.8 301C71.3 301 35.7 301 17.8 301L0 301Z"
		fill="#9b7aff"></path>
	<path
		d="M0 196L17.8 198C35.7 200 71.3 204 106.8 203.5C142.3 203 177.7 198 213.2 201C248.7 204 284.3 215 320 217C355.7 219 391.3 212 426.8 205.3C462.3 198.7 497.7 192.3 533.2 193.5C568.7 194.7 604.3 203.3 640 205.5C675.7 207.7 711.3 203.3 746.8 203.5C782.3 203.7 817.7 208.3 853.2 206.7C888.7 205 924.3 197 942.2 193L960 189L960 301L942.2 301C924.3 301 888.7 301 853.2 301C817.7 301 782.3 301 746.8 301C711.3 301 675.7 301 640 301C604.3 301 568.7 301 533.2 301C497.7 301 462.3 301 426.8 301C391.3 301 355.7 301 320 301C284.3 301 248.7 301 213.2 301C177.7 301 142.3 301 106.8 301C71.3 301 35.7 301 17.8 301L0 301Z"
		fill="#618fff"></path>
	<path
		d="M0 257L17.8 255C35.7 253 71.3 249 106.8 250.5C142.3 252 177.7 259 213.2 262.5C248.7 266 284.3 266 320 260.2C355.7 254.3 391.3 242.7 426.8 237.8C462.3 233 497.7 235 533.2 234.8C568.7 234.7 604.3 232.3 640 231.7C675.7 231 711.3 232 746.8 232.7C782.3 233.3 817.7 233.7 853.2 239C888.7 244.3 924.3 254.7 942.2 259.8L960 265L960 301L942.2 301C924.3 301 888.7 301 853.2 301C817.7 301 782.3 301 746.8 301C711.3 301 675.7 301 640 301C604.3 301 568.7 301 533.2 301C497.7 301 462.3 301 426.8 301C391.3 301 355.7 301 320 301C284.3 301 248.7 301 213.2 301C177.7 301 142.3 301 106.8 301C71.3 301 35.7 301 17.8 301L0 301Z"
		fill="#009dff"></path>
</svg>