<svg id="visual" viewBox="0 0 960 300" width="960" height="300" xmlns="http://www.w3.org/2000/svg" xmlns:xlink="http://www.w3.org/1999/xlink" version="1.1"><path d="M0 64L17.8 73.7C35.7 83.3 71.3 102.7 106.8 104.2C142.3 105.7 177.7 89.3 213.2 85.8C248.7 82.3 284.3 91.7 320 90.3C355.7 89 391.3 77 426.8 74.2C462.3 71.3 497.7 77.7 533.2 77C568.7 76.3 604.3 68.7 640 71C675.7 73.3 711.3 85.7 746.8 87.2C782.3 88.7 817.7 79.3 853.2 74.5C888.7 69.7 924.3 69.3 942.2 69.2L960 69L960 301L942.2 301C924.3 301 888.7 301 853.2 301C817.7 301 782.3 301 746.8 301C711.3 301 675.7 301 640 301C604.3 301 568.7 301 533.2 301C497.7 301 462.3 301 426.8 301C391.3 301 355.7 301 320 301C284.3 301 248.7 301 213.2 301C177.7 301 142.3 301 106.8 301C71.3 301 35.7 301 17.8 301L0 301Z" fill="#ff00d0"></path><path d="M0 130L17.8 132.7C35.7 135.3 71.3 140.7 106.8 145.3C142.3 150 177.7 154 213.2 152.3C248.7 150.7 284.3 143.3 320 136.7C355.7 130 391.3 124 426.8 127.5C462.3 131 497.7 144 533.2 148.7C568.7 153.3 604.3 149.7 640 142.7C675.7 135.7 711.3 125.3 746.8 124.7C782.3 124 817.7 133 853.2 133C888.7 133 924.3 124 942.2 119.5L960 115L960 301L942.2 301C924.3 301 888.7 301 853.2 301C817.7 301 782.3 301 746.8 301C711.3 301 675.7 301 640 301C604.3 301 568.7 301 533.2 301C497.7 301 462.3 301 426.8 301C391.3 301 355.7 301 320 301C284.3 301 248.7 301 213.2 301C177.7 301 142.3 301 106.8 301C71.3 301 35.7 301 17.8 301L0 301Z" fill="#ff009a"></path><path d="M0 177L17.8 179C35.7 181 71.3 185 106.8 185.5C142.3 186 177.7 183 213.2 175.8C248.7 168.7 284.3 157.3 320 156.2C355.7 155 391.3 164 426.8 168.3C462.3 172.7 497.7 172.3 533.2 170C568.7 167.7 604.3 163.3 640 165C675.7 166.7 711.3 174.3 746.8 178.7C782.3 183 817.7 184 853.2 181.3C888.7 178.7 924.3 172.3 942.2 169.2L960 166L960 301L942.2 301C924.3 301 888.7 301 853.2 301C817.7 301 782.3 301 746.8 301C711.3 301 675.7 301 640 301C604.3 301 568.7 301 533.2 301C497.7 301 462.3 301 426.8 301C391.3 301 355.7 301 320 301C284.3 301 248.7 301 213.2 301C177.7 301 142.3 301 106.8 301C71.3 301 35.7 301 17.8 301L0 301Z" fill="#ff006c"></path><path d="M0 227L17.8 224.8C35.7 222.7 71.3 218.3 106.8 215.7C142.3 213 177.7 212 213.2 213.8C248.7 215.7 284.3 220.3 320 219C355.7 217.7 391.3 210.3 426.8 211.7C462.3 213 497.7 223 533.2 226.5C568.7 230 604.3 227 640 220.3C675.7 213.7 711.3 203.3 746.8 197.5C782.3 191.7 817.7 190.3 853.2 196C888.7 201.7 924.3 214.3 942.2 220.7L960 227L960 301L942.2 301C924.3 301 888.7 301 853.2 301C817.7 301 782.3 301 746.8 301C711.3 301 675.7 301 640 301C604.3 301 568.7 301 533.2 301C497.7 301 462.3 301 426.8 301C391.3 301 355.7 301 320 301C284.3 301 248.7 301 213.2 301C177.7 301 142.3 301 106.8 301C71.3 301 35.7 301 17.8 301L0 301Z" fill="#ff3742"></path><path d="M0 237L17.8 237.5C35.7 238 71.3 239 106.8 237.7C142.3 236.3 177.7 232.7 213.2 233.8C248.7 235 284.3 241 320 244.2C355.7 247.3 391.3 247.7 426.8 247.2C462.3 246.7 497.7 245.3 533.2 243.5C568.7 241.7 604.3 239.3 640 239.2C675.7 239 711.3 241 746.8 242C782.3 243 817.7 243 853.2 245.5C888.7 248 924.3 253 942.2 255.5L960 258L960 301L942.2 301C924.3 301 888.7 301 853.2 301C817.7 301 782.3 301 746.8 301C711.3 301 675.7 301 640 301C604.3 301 568.7 301 533.2 301C497.7 301 462.3 301 426.8 301C391.3 301 355.7 301 320 301C284.3 301 248.7 301 213.2 301C177.7 301 142.3 301 106.8 301C71.3 301 35.7 301 17.8 301L0 301Z" fill="#ff6200"></path></svg>